# Blender v2.74 (sub 0) OBJ File: 'grass.blend'
# www.blender.org
mtllib grass.mtl
o Plane
v -0.379595 4.015699 -0.678440
v -0.371120 4.015530 -0.681022
v -0.218025 -0.004413 0.010337
v -0.100240 -0.004413 0.010337
v -0.232798 2.497266 -0.112188
v -0.254553 3.388897 -0.315137
v -0.175862 3.391546 -0.331164
v -0.126035 2.498244 -0.118105
v -0.234307 2.882936 -0.179527
v -0.139020 2.883809 -0.184808
v -0.283620 3.668242 -0.455601
v -0.233135 3.667232 -0.470977
v -0.120962 1.833184 -0.070568
v -0.230775 1.833184 -0.070568
v 0.583467 3.013406 0.132849
v 0.581452 3.013278 0.139172
v 0.090131 0.002365 -0.060563
v 0.040024 0.002365 0.012046
v 0.171947 1.876108 -0.017547
v 0.306312 2.543934 0.055379
v 0.282716 2.545918 0.110707
v 0.130177 1.876840 0.050785
v 0.214101 2.164973 0.010170
v 0.176820 2.165626 0.071157
v 0.405266 2.753162 0.097216
v 0.393269 2.752405 0.134879
v 0.098714 1.378714 0.033690
v 0.145430 1.378714 -0.034005
v -0.741654 4.015699 0.183431
v -0.743507 4.015530 0.174767
v -0.041659 -0.004413 0.080833
v -0.031673 -0.004413 -0.036527
v -0.164995 2.497266 0.085167
v -0.369059 3.388897 0.089638
v -0.378357 3.391546 0.009872
v -0.161840 2.498244 -0.021713
v -0.232220 2.882936 0.080962
v -0.229404 2.883809 -0.014430
v -0.511481 3.668242 0.106691
v -0.522521 3.667232 0.055085
v -0.114044 1.833184 -0.022738
v -0.123353 1.833184 0.086679
v 0.127181 3.408618 -0.706015
v 0.134321 3.408475 -0.708190
v 0.027864 0.021519 -0.125694
v 0.127102 0.021519 -0.125694
v 0.015417 2.129280 -0.228926
v 0.024466 2.880513 -0.399919
v 0.090765 2.882745 -0.413422
v 0.105368 2.130104 -0.233912
v 0.014145 2.454221 -0.285662
v 0.094428 2.454957 -0.290112
v 0.054730 3.115872 -0.518265
v 0.097266 3.115021 -0.531220
v 0.109643 1.569765 -0.193860
v 0.017121 1.569765 -0.193860
v 0.683615 4.602270 -0.789183
v 0.691734 4.602076 -0.783142
v 0.159925 0.009761 -0.173597
v 0.239791 0.009761 -0.065309
v 0.262554 2.867637 -0.270260
v 0.434391 3.886221 -0.427876
v 0.502482 3.889247 -0.366397
v 0.340387 2.868754 -0.176118
v 0.323441 3.308220 -0.317309
v 0.392909 3.309217 -0.233285
v 0.543819 4.205341 -0.549844
v 0.592189 4.204186 -0.513856
v 0.300122 2.109001 -0.139219
v 0.225661 2.109001 -0.240179
v 0.856019 3.893811 0.328251
v 0.854046 3.893647 0.336588
v 0.201919 0.005989 0.127570
v 0.144521 0.005989 0.225961
v 0.311469 2.425345 0.174937
v 0.491603 3.287634 0.255664
v 0.466643 3.290196 0.329207
v 0.264385 2.426291 0.267003
v 0.368455 2.798323 0.206491
v 0.326432 2.799167 0.288662
v 0.623103 3.557787 0.299832
v 0.611345 3.556810 0.349497
v 0.222202 1.783116 0.248076
v 0.275716 1.783116 0.156345
v 0.856019 3.893811 0.328251
v 0.854046 3.893647 0.336588
v 0.201919 0.005989 0.127570
v 0.144521 0.005989 0.225961
v 0.311469 2.425345 0.174937
v 0.491603 3.287634 0.255664
v 0.466643 3.290196 0.329207
v 0.264385 2.426291 0.267003
v 0.368455 2.798323 0.206491
v 0.326432 2.799167 0.288662
v 0.623103 3.557787 0.299832
v 0.611345 3.556810 0.349497
v 0.222202 1.783116 0.248076
v 0.275716 1.783116 0.156345
v 0.408894 4.015699 0.724797
v 0.401707 4.015530 0.729977
v 0.033568 -0.004413 0.125089
v -0.077907 -0.004413 0.163122
v 0.087115 2.497266 0.236280
v 0.173237 3.388897 0.421333
v 0.103938 3.391546 0.461911
v -0.012018 2.498244 0.276354
v 0.110287 2.882936 0.299525
v 0.021810 2.883809 0.335292
v 0.246104 3.668242 0.544887
v 0.203289 3.667232 0.575741
v -0.032170 1.833184 0.233001
v 0.071760 1.833184 0.197542
v -0.143046 1.569765 0.291631
v -0.234058 1.569765 0.274982
v -0.282586 3.115021 0.609064
v -0.238414 3.115872 0.603974
v -0.236411 2.454957 0.372401
v -0.156637 2.454221 0.382470
v -0.237060 2.130104 0.315150
v -0.254995 2.882745 0.494358
v -0.187348 2.880513 0.493005
v -0.147679 2.129280 0.326432
v -0.238966 0.021519 0.204788
v -0.141347 0.021519 0.222644
v -0.350881 3.408475 0.776478
v -0.343465 3.408618 0.775623
v -0.775853 3.687700 -0.215551
v -0.778035 3.687543 -0.223384
v -0.146476 -0.001879 -0.092272
v -0.143890 -0.001879 -0.200343
v -0.259219 2.294112 -0.081408
v -0.445192 3.112432 -0.095718
v -0.458169 3.114864 -0.168269
v -0.262304 2.295009 -0.179494
v -0.321037 2.648072 -0.081501
v -0.323791 2.648873 -0.169045
v -0.573282 3.368811 -0.131760
v -0.586281 3.367883 -0.178418
v -0.218576 1.684630 -0.183105
v -0.220987 1.684630 -0.082351
v -0.745610 3.351757 0.506027
v -0.751068 3.351716 0.500933
v -0.091536 -0.001647 0.123996
v -0.141316 0.001358 0.038198
v -0.238347 2.096441 0.297035
v -0.413461 2.837587 0.414118
v -0.458459 2.841113 0.363665
v -0.287803 2.099725 0.221801
v -0.296597 2.417767 0.343553
v -0.340738 2.420698 0.276405
v -0.538084 3.067216 0.459459
v -0.570595 3.066973 0.429114
v -0.238358 1.542649 0.168663
v -0.191948 1.539848 0.248654
v -0.343465 3.408618 0.775623
v -0.350881 3.408475 0.776478
v -0.141347 0.021519 0.222644
v -0.238966 0.021519 0.204788
v -0.147679 2.129280 0.326432
v -0.187348 2.880513 0.493005
v -0.254995 2.882745 0.494358
v -0.237060 2.130104 0.315150
v -0.156637 2.454221 0.382470
v -0.236411 2.454957 0.372401
v -0.238414 3.115872 0.603974
v -0.282586 3.115021 0.609064
v -0.234058 1.569765 0.274982
v -0.143046 1.569765 0.291631
v -0.345523 3.408546 0.767033
v -0.188508 0.021519 0.204697
v -0.219522 2.881629 0.484663
v -0.190720 2.129692 0.311772
v -0.194874 2.454589 0.368417
v -0.258850 3.115447 0.597500
v -0.186903 1.569765 0.274288
v -0.345523 3.408546 0.767033
v -0.188508 0.021519 0.204697
v -0.219522 2.881629 0.484663
v -0.190720 2.129692 0.311772
v -0.194874 2.454589 0.368417
v -0.258850 3.115447 0.597500
v -0.186903 1.569765 0.274288
v -0.155348 1.569765 -0.192052
v -0.069587 1.569765 -0.226771
v -0.207653 3.115021 -0.534834
v -0.242219 3.115872 -0.506864
v -0.119808 2.454957 -0.310280
v -0.192555 2.454221 -0.276030
v -0.088579 2.130104 -0.262291
v -0.169476 2.882745 -0.423205
v -0.225863 2.880513 -0.385810
v -0.170086 2.129280 -0.223917
v -0.027825 0.021520 -0.170138
v -0.119812 0.021520 -0.132899
v -0.239713 3.408475 -0.712777
v -0.245515 3.408618 -0.708082
v -0.239173 3.408546 -0.701932
v -0.070378 0.021520 -0.143020
v -0.194229 2.881629 -0.396008
v -0.125893 2.129692 -0.234606
v -0.152741 2.454589 -0.284657
v -0.221496 3.115446 -0.512350
v -0.109027 1.569765 -0.200913
vt 0.351539 0.118994
vt 0.263190 0.136477
vt 0.270218 0.009656
vt 0.290600 0.675873
vt 0.260673 0.515715
vt 0.347273 0.515987
vt 0.353064 0.795470
vt 0.425659 0.785470
vt 0.425659 0.900777
vt 0.264512 0.420171
vt 0.264512 0.506771
vt 0.101932 0.514204
vt 0.571761 0.344477
vt 0.571761 0.615487
vt 0.517156 0.599454
vt 0.403026 0.001061
vt 0.403026 0.116368
vt 0.842001 0.516660
vt 0.907348 0.499924
vt 0.907348 0.595058
vt 0.471411 0.668414
vt 0.448996 0.548457
vt 0.513858 0.548660
vt 0.718586 0.334708
vt 0.710727 0.280387
vt 0.797089 0.279799
vt 0.575276 0.263134
vt 0.575276 0.327996
vt 0.453504 0.333564
vt 0.670287 0.771675
vt 0.670287 0.974660
vt 0.629388 0.962652
vt 0.708497 0.241837
vt 0.190280 0.393384
vt 0.101932 0.410868
vt 0.108961 0.284047
vt 0.659316 0.768148
vt 0.629388 0.607991
vt 0.715988 0.608262
vt 0.544128 0.783398
vt 0.616723 0.773398
vt 0.616723 0.888704
vt 0.515645 0.349578
vt 0.515645 0.436177
vt 0.353064 0.443610
vt 0.627877 0.344478
vt 0.627877 0.615488
vt 0.573272 0.599455
vt 0.241768 0.275452
vt 0.241768 0.390758
vt 0.303893 0.777004
vt 0.229456 0.791736
vt 0.235378 0.684883
vt 0.907660 0.473513
vt 0.866682 0.498413
vt 0.842001 0.373606
vt 0.909171 0.338258
vt 0.909171 0.251550
vt 0.970336 0.243125
vt 0.015538 0.735025
vt 0.087435 0.722594
vt 0.087435 0.855627
vt 0.225583 0.964379
vt 0.219243 0.969339
vt 0.187818 0.776910
vt 0.347272 0.677642
vt 0.347272 0.774791
vt 0.202860 0.135828
vt 0.101932 0.155801
vt 0.109962 0.010923
vt 0.387251 0.340275
vt 0.353064 0.157312
vt 0.451993 0.157623
vt 0.806255 0.892989
vt 0.806255 0.775422
vt 0.889187 0.763999
vt 0.287661 0.166214
vt 0.287661 0.265143
vt 0.101932 0.273636
vt 0.351553 0.160387
vt 0.351553 0.469984
vt 0.289172 0.451669
vt 0.261679 0.001105
vt 0.261679 0.132829
vt 0.717499 0.771878
vt 0.801874 0.750267
vt 0.801874 0.873103
vt 0.712650 0.496673
vt 0.683708 0.341786
vt 0.767457 0.342049
vt 0.427170 0.795141
vt 0.497377 0.785470
vt 0.497377 0.896981
vt 0.259162 0.523249
vt 0.259162 0.606999
vt 0.101932 0.614189
vt 0.706986 0.003358
vt 0.706986 0.265450
vt 0.654178 0.249944
vt 0.186307 0.934022
vt 0.074799 0.934781
vt 0.071920 0.885006
vt 0.101933 0.768973
vt 0.186307 0.747362
vt 0.186307 0.870198
vt 0.573070 0.771887
vt 0.544128 0.616999
vt 0.627877 0.617263
vt 0.229456 0.802917
vt 0.299663 0.793247
vt 0.299663 0.904758
vt 0.610734 0.164847
vt 0.610734 0.248597
vt 0.453504 0.255786
vt 0.682196 0.344388
vt 0.682196 0.606480
vt 0.629388 0.590974
vt 0.691175 0.332804
vt 0.579666 0.333564
vt 0.576787 0.283789
vt 0.717499 0.630337
vt 0.804744 0.607991
vt 0.804744 0.735007
vt 0.030682 0.721082
vt 0.000756 0.560924
vt 0.087354 0.561196
vt 0.547856 0.124751
vt 0.537363 0.052224
vt 0.652667 0.051441
vt 0.515643 0.452913
vt 0.515643 0.539512
vt 0.353064 0.546946
vt 0.055361 0.288403
vt 0.055361 0.559413
vt 0.000756 0.543380
vt 0.534387 0.000756
vt 0.963427 0.211029
vt 0.963817 0.222733
vt 0.932393 0.030302
vt 0.809434 0.044009
vt 0.813418 0.119785
vt 0.759011 0.118942
vt 0.549299 0.894004
vt 0.594137 0.890216
vt 0.594137 0.951958
vt 0.857651 0.293492
vt 0.839611 0.315520
vt 0.814930 0.190714
vt 0.763392 0.003534
vt 0.813418 0.000756
vt 0.541815 0.913613
vt 0.506562 0.931775
vt 0.498888 0.798963
vt 0.485621 0.109272
vt 0.404537 0.125318
vt 0.410989 0.008923
vt 0.840490 0.485277
vt 0.795853 0.512400
vt 0.768968 0.376447
vt 0.067382 0.861560
vt 0.067382 0.956012
vt 0.000756 0.965189
vt 0.369168 0.561998
vt 0.447485 0.548457
vt 0.447485 0.693370
vt 0.098009 0.522110
vt 0.091103 0.527513
vt 0.056872 0.317898
vt 0.532876 0.001036
vt 0.532876 0.106862
vt 0.094479 0.108960
vt 0.100421 0.284201
vt 0.000756 0.245356
vt 0.831771 0.621775
vt 0.877706 0.607991
vt 0.877705 0.748006
vt 0.763753 0.498185
vt 0.763753 0.584839
vt 0.683708 0.602687
vt 0.363725 0.778321
vt 0.353064 0.706202
vt 0.510832 0.697305
vt 0.948776 0.571142
vt 0.942128 0.575682
vt 0.909171 0.368829
vt 0.008134 0.000756
vt 0.100421 0.030913
vt 0.809434 0.164550
vt 0.813418 0.240326
vt 0.759011 0.239483
vt 0.857651 0.135354
vt 0.839611 0.157382
vt 0.814930 0.032576
vt 0.895870 0.834693
vt 0.940708 0.830905
vt 0.940708 0.892647
vt 0.344100 0.921390
vt 0.308847 0.939551
vt 0.301174 0.806740
vt 0.979481 0.787466
vt 0.979871 0.799170
vt 0.948446 0.606740
vt 0.763392 0.124074
vt 0.813418 0.121296
vt 0.949701 0.841293
vt 0.948446 0.800681
vt 0.997795 0.812978
vt 0.963769 0.582742
vt 0.986210 0.577193
vt 0.481078 0.904428
vt 0.481078 0.940270
vt 0.353064 0.946006
vt 0.953321 0.902435
vt 0.997795 0.850838
vt 0.880588 0.132483
vt 0.845310 0.007087
vt 0.758577 0.164420
vt 0.708497 0.219254
vt 0.718753 0.928523
vt 0.717499 0.887911
vt 0.766847 0.900208
vt 0.947715 0.006304
vt 0.970156 0.000756
vt 0.934270 0.899374
vt 0.934270 0.935216
vt 0.806255 0.940952
vt 0.722373 0.989665
vt 0.766847 0.938068
vt 0.880588 0.290621
vt 0.845310 0.165225
vt 0.758577 0.043879
vt 0.708497 0.098713
vt 0.940206 0.787466
vt 0.940596 0.799170
vt 0.909171 0.606740
vt 0.109087 0.692679
vt 0.101932 0.617136
vt 0.156327 0.615700
vt 0.770436 0.541657
vt 0.815274 0.537869
vt 0.815274 0.599611
vt 0.652667 0.255122
vt 0.632600 0.275321
vt 0.619986 0.148725
vt 0.156784 0.731190
vt 0.106917 0.736061
vt 0.714725 0.897801
vt 0.679473 0.915964
vt 0.671798 0.783152
vt 0.159905 0.690679
vt 0.207644 0.708211
vt 0.924494 0.582742
vt 0.946935 0.577193
vt 0.895180 0.000756
vt 0.930882 0.003928
vt 0.925263 0.131948
vt 0.930882 0.192938
vt 0.882501 0.184972
vt 0.255894 0.275807
vt 0.279002 0.275147
vt 0.279002 0.404006
vt 0.207644 0.633797
vt 0.358092 0.000756
vt 0.347272 0.670668
vt 0.353064 0.898383
vt 0.116858 0.412379
vt 0.562594 0.341786
vt 0.842001 0.605356
vt 0.513858 0.664515
vt 0.795666 0.334183
vt 0.464684 0.257297
vt 0.663421 0.769659
vt 0.797089 0.246143
vt 0.196834 0.275147
vt 0.715988 0.762943
vt 0.544128 0.886311
vt 0.367991 0.341786
vt 0.618710 0.341786
vt 0.309414 0.677384
vt 0.907660 0.341786
vt 0.970336 0.340275
vt 0.000756 0.857852
vt 0.225583 0.747362
vt 0.210346 0.000756
vt 0.451993 0.334328
vt 0.889187 0.895723
vt 0.118983 0.157312
vt 0.341080 0.157312
vt 0.717499 0.886400
vt 0.767457 0.491640
vt 0.427171 0.894667
vt 0.116366 0.515715
vt 0.698121 0.000756
vt 0.186307 0.890565
vt 0.101932 0.883495
vt 0.627877 0.766854
vt 0.229456 0.902444
vt 0.467938 0.157312
vt 0.673331 0.341786
vt 0.691175 0.289348
vt 0.717499 0.748756
vt 0.087354 0.715878
vt 0.650767 0.124051
vt 0.367990 0.445121
vt 0.046195 0.285712
vt 0.652667 0.006505
vt 0.544128 0.955033
vt 0.541815 0.785470
vt 0.491637 0.000756
vt 0.840490 0.341786
vt 0.000756 0.859363
vt 0.353064 0.695794
vt 0.098009 0.285712
vt 0.001560 0.072744
vt 0.806255 0.762488
vt 0.683708 0.505597
vt 0.510832 0.783959
vt 0.948776 0.341786
vt 0.890698 0.895723
vt 0.344100 0.793247
vt 0.986210 0.794210
vt 0.357383 0.902288
vt 0.996195 0.912014
vt 0.880588 0.000756
vt 0.711614 0.144903
vt 0.970156 0.217772
vt 0.810575 0.897234
vt 0.765247 0.999245
vt 0.880588 0.158894
vt 0.711614 0.024363
vt 0.765264 0.602687
vt 0.652667 0.126262
vt 0.714725 0.769659
vt 0.203572 0.745851
vt 0.946935 0.794210
vt 0.882100 0.123775
vt 0.243279 0.406930
vn 0.000000 -0.044000 -0.999000
vn -0.160500 -0.472800 -0.866400
vn -0.052900 -0.172000 -0.983700
vn -0.182100 -0.284500 -0.941200
vn -0.249700 -0.570700 -0.782300
vn -0.054500 -0.071600 -0.995900
vn 0.822200 -0.044000 0.567400
vn 0.804300 -0.472800 0.360000
vn 0.839700 -0.172000 0.515100
vn 0.878100 -0.284500 0.384700
vn 0.785700 -0.570700 0.238800
vn 0.850700 -0.071600 0.520800
vn -0.995400 -0.044000 -0.084700
vn -0.876900 -0.472800 0.086500
vn -0.984600 -0.172000 -0.030600
vn -0.953300 -0.284500 0.101700
vn -0.800600 -0.570700 0.182500
vn -0.997000 -0.071600 -0.030100
vn -0.271000 -0.429300 -0.861500
vn -0.183100 -0.273700 -0.944200
vn -0.265400 -0.473100 -0.840100
vn 0.804000 -0.044000 -0.593000
vn 0.602000 -0.472800 -0.643500
vn 0.760200 -0.172000 -0.626500
vn 0.649400 -0.284500 -0.705200
vn 0.481400 -0.570700 -0.665300
vn 0.769100 -0.071600 -0.635000
vn 0.862900 -0.044000 0.503400
vn 0.829300 -0.472800 0.297900
vn 0.876300 -0.172000 0.449900
vn 0.904800 -0.284500 0.317000
vn 0.801500 -0.570700 0.178500
vn 0.887700 -0.071600 0.454700
vn 0.322600 -0.044000 0.945500
vn 0.431700 -0.472800 0.768200
vn 0.367700 -0.172000 0.913900
vn 0.476300 -0.284500 0.832000
vn 0.488900 -0.570700 0.659800
vn 0.373200 -0.071600 0.925000
vn 0.867400 -0.078500 0.491400
vn 0.001800 -0.045300 0.999000
vn 0.092500 -0.173000 0.980600
vn 0.413300 -0.363300 0.835000
vn 0.071900 -0.070900 0.994900
vn 0.247400 -0.255700 0.934600
vn -0.998700 -0.044000 -0.023900
vn -0.867800 -0.429300 0.250300
vn -0.984700 -0.172000 0.029400
vn -0.948300 -0.273700 0.160400
vn -0.846200 -0.473100 0.245100
vn -0.997000 -0.071600 0.030700
vn -0.862400 -0.096400 0.497000
vn -0.595900 -0.482000 0.642300
vn -0.818700 -0.224900 0.528400
vn -0.716200 -0.328400 0.615800
vn -0.578900 -0.524400 0.624400
vn -0.831500 -0.125400 0.541100
vn -0.367000 -0.064600 0.928000
vn -0.244200 -0.538600 0.806400
vn -0.250500 -0.267700 0.930400
vn -0.319300 -0.166700 0.932900
vn -0.260300 -0.454800 0.851700
vn -0.355400 -0.041600 0.933800
vn -0.995700 -0.078400 0.050000
vn -0.536900 -0.045300 -0.842400
vn -0.603600 -0.173000 -0.778300
vn -0.796400 -0.363300 -0.483500
vn -0.593900 -0.070900 -0.801400
vn -0.709700 -0.255700 -0.656400
vn -0.187500 -0.064600 -0.980100
vn -0.225900 -0.538600 -0.811700
vn -0.287100 -0.267700 -0.919700
vn -0.230300 -0.166700 -0.958700
vn -0.236600 -0.454800 -0.858600
vn -0.200400 -0.041600 -0.978800
vn -0.267800 -0.454900 -0.849300
vn -0.051100 -0.260500 -0.964100
vn 0.000000 -0.062600 -0.998000
vn 0.851100 -0.454900 0.262000
vn 0.822500 -0.260500 0.505600
vn 0.821400 -0.062600 0.566900
vn -0.869000 -0.454900 0.194800
vn -0.965000 -0.260500 -0.030900
vn -0.800700 -0.570700 0.182400
vn -0.994400 -0.062600 -0.084600
vn -0.166800 -0.425700 -0.889300
vn -0.051100 -0.257400 -0.965000
vn -0.265300 -0.473100 -0.840100
vn 0.524600 -0.454900 -0.719600
vn 0.745600 -0.260500 -0.613400
vn 0.481300 -0.570700 -0.665300
vn 0.803200 -0.062600 -0.592400
vn 0.868500 -0.454900 0.196700
vn 0.858500 -0.260500 0.441700
vn 0.862100 -0.062600 0.502900
vn 0.527700 -0.454900 0.717400
vn 0.359600 -0.260500 0.896000
vn 0.322300 -0.062600 0.944600
vn 0.413600 -0.361100 0.835800
vn 0.014700 -0.044900 0.998900
vn 0.070100 -0.170500 0.982900
vn 0.231200 -0.391000 0.890900
vn 0.014700 -0.066700 0.997700
vn 0.090000 -0.256700 0.962300
vn -0.893100 -0.425700 0.145500
vn -0.965900 -0.257400 0.028000
vn -0.846200 -0.473100 0.245200
vn -0.997800 -0.062600 -0.023900
vn -0.672300 -0.476700 0.566300
vn -0.800800 -0.309100 0.512900
vn -0.861000 -0.114800 0.495500
vn -0.322300 -0.061400 0.944600
vn -0.873300 -0.438200 0.212800
vn -0.335400 -0.259000 0.905800
vn -0.341400 -0.168900 0.924600
vn -0.238200 -0.456000 0.857500
vn -0.367400 -0.041800 0.929100
vn -0.797100 -0.361100 -0.484000
vn -0.547700 -0.044900 -0.835400
vn -0.585900 -0.170500 -0.792200
vn -0.672600 -0.391000 -0.628200
vn -0.547100 -0.066700 -0.834400
vn -0.591700 -0.256700 -0.764200
vn -0.234100 -0.061400 -0.970300
vn 0.623200 -0.438200 -0.647700
vn -0.202300 -0.259000 -0.944500
vn -0.207200 -0.168900 -0.963600
vn -0.258500 -0.456000 -0.851600
vn -0.187700 -0.041800 -0.981300
usemtl None
s off
f 13/1/1 4/2/1 3/3/1
f 12/4/2 7/5/2 6/6/2
f 10/7/3 8/8/3 5/9/3
f 6/10/4 7/11/4 10/12/4
f 2/13/5 12/14/5 11/15/5
f 5/16/6 8/17/6 13/1/6
f 27/18/7 18/19/7 17/20/7
f 26/21/8 21/22/8 20/23/8
f 24/24/9 22/25/9 19/26/9
f 20/27/10 21/28/10 24/29/10
f 16/30/11 26/31/11 25/32/11
f 19/26/12 22/25/12 27/33/12
f 41/34/13 32/35/13 31/36/13
f 40/37/14 35/38/14 34/39/14
f 38/40/15 36/41/15 33/42/15
f 34/43/16 35/44/16 38/45/16
f 30/46/17 40/47/17 39/48/17
f 33/49/18 36/50/18 41/34/18
f 55/51/1 46/52/1 45/53/1
f 53/54/19 54/55/19 49/56/19
f 51/57/3 52/58/3 50/59/3
f 48/60/20 49/61/20 52/62/20
f 43/63/21 44/64/21 54/65/21
f 47/66/6 50/67/6 55/51/6
f 69/68/22 60/69/22 59/70/22
f 68/71/23 63/72/23 62/73/23
f 65/74/24 66/75/24 64/76/24
f 62/77/25 63/78/25 66/79/25
f 58/80/26 68/81/26 67/82/26
f 61/83/27 64/84/27 69/68/27
f 83/85/28 74/86/28 73/87/28
f 82/88/29 77/89/29 76/90/29
f 80/91/30 78/92/30 75/93/30
f 76/94/31 77/95/31 80/96/31
f 72/97/32 82/98/32 81/99/32
f 75/100/33 78/101/33 83/102/33
f 97/103/28 88/104/28 87/105/28
f 96/106/29 91/107/29 90/108/29
f 94/109/30 92/110/30 89/111/30
f 90/112/31 91/113/31 94/114/31
f 86/115/32 96/116/32 95/117/32
f 89/118/33 92/119/33 97/120/33
f 111/121/34 102/122/34 101/123/34
f 110/124/35 105/125/35 104/126/35
f 108/127/36 106/128/36 103/129/36
f 104/130/37 105/131/37 108/132/37
f 100/133/38 110/134/38 109/135/38
f 103/129/39 106/128/39 111/136/39
f 176/137/40 125/138/40 115/139/40
f 114/140/41 123/141/41 177/142/41
f 180/143/42 117/144/42 119/145/42
f 181/146/43 115/147/43 120/148/43
f 179/149/44 119/150/44 114/140/44
f 178/151/45 120/152/45 117/153/45
f 139/154/46 130/155/46 129/156/46
f 137/157/47 138/158/47 133/159/47
f 135/160/48 136/161/48 134/162/48
f 132/163/49 133/164/49 136/165/49
f 127/166/50 128/167/50 138/168/50
f 131/169/51 134/170/51 139/154/51
f 153/171/52 144/172/52 143/173/52
f 151/174/53 152/175/53 147/176/53
f 149/177/54 150/178/54 148/179/54
f 146/180/55 147/181/55 150/182/55
f 141/183/56 142/184/56 152/185/56
f 145/186/57 148/187/57 153/171/57
f 167/188/41 158/189/41 170/190/41
f 174/191/43 166/192/43 161/193/43
f 173/194/42 164/195/42 162/196/42
f 171/197/45 161/198/45 164/199/45
f 169/200/40 156/201/40 166/202/40
f 172/203/44 162/204/44 167/188/44
f 172/205/58 175/206/58 168/207/58
f 169/200/59 174/208/59 165/209/59
f 160/210/60 171/211/60 173/212/60
f 173/213/61 172/205/61 159/214/61
f 165/215/62 174/191/62 171/216/62
f 175/217/63 170/190/63 157/218/63
f 179/219/58 182/220/58 113/221/58
f 176/137/59 181/222/59 116/223/59
f 121/224/60 178/225/60 180/226/60
f 180/227/61 179/219/61 122/228/61
f 116/229/62 181/146/62 178/230/62
f 182/231/63 177/142/63 124/232/63
f 197/233/64 195/234/64 185/235/64
f 184/236/65 193/237/65 198/238/65
f 201/239/66 187/240/66 189/241/66
f 202/242/67 185/243/67 190/244/67
f 200/245/68 189/246/68 184/236/68
f 199/247/69 190/248/69 187/249/69
f 200/245/70 203/250/70 183/251/70
f 197/233/71 202/252/71 186/253/71
f 191/254/72 199/255/72 201/256/72
f 201/256/73 200/257/73 192/258/73
f 186/259/74 202/260/74 199/261/74
f 203/250/75 198/238/75 194/262/75
f 14/263/1 13/1/1 3/3/1
f 11/264/76 12/4/76 6/6/76
f 9/265/3 10/7/3 5/9/3
f 9/266/77 6/10/77 10/12/77
f 1/267/5 2/13/5 11/15/5
f 14/263/78 5/16/78 13/1/78
f 28/268/7 27/18/7 17/20/7
f 25/269/79 26/21/79 20/23/79
f 23/270/9 24/24/9 19/26/9
f 23/271/80 20/27/80 24/29/80
f 15/272/11 16/30/11 25/32/11
f 28/273/81 19/26/81 27/33/81
f 42/274/13 41/34/13 31/36/13
f 39/275/82 40/37/82 34/39/82
f 37/276/15 38/40/15 33/42/15
f 37/277/83 34/43/83 38/45/83
f 29/278/84 30/46/84 39/48/84
f 42/274/85 33/49/85 41/34/85
f 56/279/1 55/51/1 45/53/1
f 48/280/86 53/54/86 49/56/86
f 47/281/3 51/57/3 50/59/3
f 51/282/87 48/60/87 52/62/87
f 53/283/88 43/63/88 54/65/88
f 56/279/78 47/66/78 55/51/78
f 70/284/22 69/68/22 59/70/22
f 67/285/89 68/71/89 62/73/89
f 61/286/24 65/74/24 64/76/24
f 65/287/90 62/77/90 66/79/90
f 57/288/91 58/80/91 67/82/91
f 70/284/92 61/83/92 69/68/92
f 84/289/28 83/85/28 73/87/28
f 81/290/93 82/88/93 76/90/93
f 79/291/30 80/91/30 75/93/30
f 79/292/94 76/94/94 80/96/94
f 71/293/32 72/97/32 81/99/32
f 84/294/95 75/100/95 83/102/95
f 98/295/28 97/103/28 87/105/28
f 95/296/93 96/106/93 90/108/93
f 93/297/30 94/109/30 89/111/30
f 93/298/94 90/112/94 94/114/94
f 85/299/32 86/115/32 95/117/32
f 98/300/95 89/118/95 97/120/95
f 112/301/34 111/121/34 101/123/34
f 109/302/96 110/124/96 104/126/96
f 107/303/36 108/127/36 103/129/36
f 107/304/97 104/130/97 108/132/97
f 99/305/38 100/133/38 109/135/38
f 112/306/98 103/129/98 111/136/98
f 181/222/99 176/137/99 115/139/99
f 182/231/100 114/140/100 177/142/100
f 179/307/101 180/143/101 119/145/101
f 178/230/102 181/146/102 120/148/102
f 182/231/103 179/149/103 114/140/103
f 180/308/104 178/151/104 117/153/104
f 140/309/46 139/154/46 129/156/46
f 132/310/105 137/157/105 133/159/105
f 131/311/48 135/160/48 134/162/48
f 135/312/106 132/163/106 136/165/106
f 137/313/107 127/166/107 138/168/107
f 140/309/108 131/169/108 139/154/108
f 154/314/52 153/171/52 143/173/52
f 146/315/109 151/174/109 147/176/109
f 145/316/54 149/177/54 148/179/54
f 149/317/110 146/180/110 150/182/110
f 151/318/56 141/183/56 152/185/56
f 154/314/111 145/186/111 153/171/111
f 175/217/100 167/188/100 170/190/100
f 171/216/102 174/191/102 161/193/102
f 172/319/101 173/194/101 162/196/101
f 173/320/104 171/197/104 164/199/104
f 174/208/99 169/200/99 166/202/99
f 175/217/103 172/203/103 167/188/103
f 159/214/112 172/205/112 168/207/112
f 155/321/113 169/200/113 165/209/113
f 163/322/114 160/210/114 173/212/114
f 163/323/115 173/213/115 159/214/115
f 160/324/116 165/215/116 171/216/116
f 168/325/117 175/217/117 157/218/117
f 122/228/112 179/219/112 113/221/112
f 126/326/113 176/137/113 116/223/113
f 118/327/114 121/224/114 180/226/114
f 118/328/115 180/227/115 122/228/115
f 121/329/116 116/229/116 178/230/116
f 113/330/117 182/231/117 124/232/117
f 202/252/118 197/233/118 185/235/118
f 203/250/119 184/236/119 198/238/119
f 200/331/120 201/239/120 189/241/120
f 199/332/121 202/242/121 190/244/121
f 203/250/122 200/245/122 184/236/122
f 201/333/123 199/247/123 187/249/123
f 192/334/124 200/245/124 183/251/124
f 196/335/125 197/233/125 186/253/125
f 188/336/126 191/254/126 201/256/126
f 188/336/127 201/256/127 192/258/127
f 191/337/128 186/259/128 199/261/128
f 183/251/129 203/250/129 194/262/129
