# Blender v2.74 (sub 0) OBJ File: 'Rock1.blend'
# www.blender.org
o Cube
v -0.828735 1.359612 1.012123
v 1.355161 1.201741 1.229089
v 1.355000 1.115228 -0.711437
v -0.817148 1.291094 -0.769272
v -1.092860 0.073227 1.317814
v 1.456627 0.151162 0.736443
v 1.093987 -0.214055 -0.883917
v -1.375681 0.046378 -0.542076
v 0.116044 1.439483 1.267063
v -0.586598 1.256269 0.160917
v -0.948791 0.662381 1.708843
v 1.459084 1.181066 0.014156
v 1.543058 0.617237 1.319311
v 0.143197 1.400864 -0.900544
v 0.968946 0.598439 -1.620257
v -0.918739 0.587224 -0.844452
v 0.206152 -0.168367 1.377257
v -1.299662 0.139715 0.331891
v 1.691512 -0.054193 -0.229266
v -0.010244 -0.154599 -0.817679
v 0.263415 1.502563 -0.003859
v -0.381667 -0.323153 0.136470
v 0.288660 0.531071 1.302544
v 1.631908 0.571198 0.449095
v 0.388362 0.732245 -1.206287
v -1.372346 0.919491 -0.015648
v 0.680940 1.282099 1.167940
v -0.720173 1.335772 -0.048068
v -1.067256 0.480669 1.572053
v 1.509697 1.123279 -0.305878
v 1.582555 0.418998 1.117859
v -0.461735 1.361865 -0.523703
v 1.516644 0.064637 -1.168311
v -1.081466 0.367789 -1.012808
v 1.005029 -0.281365 1.044867
v -1.621641 0.140675 -0.133158
v 1.491030 -0.091670 -0.394631
v -0.777212 -0.116714 -1.143311
v -0.443607 1.336245 1.332672
v -0.821935 1.357453 0.619019
v -0.890538 1.176100 0.999093
v 1.397697 1.236827 0.408197
v 1.628383 0.771671 1.321351
v 0.916803 1.370270 -1.191671
v 1.213977 1.066206 -1.260191
v -0.689370 1.201061 -0.881371
v -0.664697 -0.019069 1.298284
v -1.304524 0.206878 1.032931
v 1.935572 0.004007 0.111761
v 1.034008 -0.112235 -0.986152
v 0.322305 1.460444 -0.123270
v 0.050078 1.611333 0.558379
v -0.161401 1.258957 0.491007
v 1.045839 1.380821 0.066370
v 0.750005 -0.239299 -0.367190
v -0.874705 0.041877 0.482095
v -0.151688 -0.175044 0.835904
v -0.069266 -0.182497 -0.488199
v 1.155448 0.486899 1.431308
v -0.579425 0.505055 1.544873
v 0.120359 0.863745 1.625235
v 0.561615 0.243978 1.099971
v 1.678885 0.649823 -0.888026
v 1.749479 0.521820 0.808497
v 1.963589 0.959256 0.143461
v 1.590287 0.400567 -0.022469
v -0.519888 0.836963 -1.673865
v 0.756233 0.624618 -1.687689
v 0.009180 1.363671 -1.528842
v 0.363797 0.070696 -1.542268
v -1.076336 0.663309 -0.779810
v -1.303750 0.643267 0.918632
v -1.546044 0.429136 0.236518
v -0.994906 1.170797 0.112134
v 0.683043 1.392420 -0.426490
v 0.793725 -0.212063 -0.789448
v 0.918813 0.045819 1.288664
v 1.424061 0.473946 -0.902526
v -0.701592 0.267052 -1.410150
v -0.901949 1.098051 -0.754007
v -0.308120 1.331232 0.061065
v -0.425759 1.494971 0.706384
v 1.080076 1.490184 0.372521
v 1.025648 -0.247081 0.500521
v -0.727518 -0.196601 1.098551
v -1.079044 -0.080948 -0.193091
v 0.936056 0.877322 1.386316
v -0.396057 1.108714 1.767382
v -0.512601 0.339757 1.679890
v 1.676350 0.910747 -0.671254
v 1.538998 0.945495 0.694026
v 1.641413 0.387284 0.353257
v -0.589393 1.273821 -1.260453
v 0.601723 1.042732 -1.392566
v 0.900748 0.078621 -1.367214
v -1.558959 0.339508 0.011925
v -1.347162 0.365605 1.234746
v -1.098200 1.082651 0.788154
vt 0.137636 0.563411
vt 0.058285 0.569867
vt 0.082613 0.506661
vt 0.155028 0.344089
vt 0.206316 0.378186
vt 0.155630 0.402329
vt 0.896175 0.282885
vt 0.854473 0.349296
vt 0.794976 0.248970
vt 0.944083 0.694636
vt 0.905653 0.682602
vt 0.916733 0.604517
vt 0.369246 0.000842
vt 0.489191 0.000000
vt 0.460672 0.063535
vt 0.485748 0.254952
vt 0.512673 0.310590
vt 0.481603 0.323059
vt 0.215363 0.578539
vt 0.223692 0.502410
vt 0.270084 0.523882
vt 0.226456 0.694739
vt 0.220811 0.635843
vt 0.266533 0.646047
vt 0.060049 0.668982
vt 0.053708 0.620010
vt 0.140662 0.629249
vt 0.046020 0.277128
vt 0.115533 0.299946
vt 0.042023 0.402498
vt 0.226136 0.127633
vt 0.165692 0.199396
vt 0.116225 0.149680
vt 0.335575 0.267841
vt 0.258354 0.321530
vt 0.206193 0.274302
vt 0.422948 0.654063
vt 0.520455 0.684734
vt 0.477461 0.726331
vt 0.529375 0.479105
vt 0.539575 0.580737
vt 0.439840 0.553878
vt 0.744126 0.814485
vt 0.672331 0.787452
vt 0.683844 0.711964
vt 0.006598 0.482318
vt 0.054401 0.402498
vt 0.090851 0.431859
vt 0.857058 0.070133
vt 0.855242 0.125920
vt 0.818683 0.137473
vt 0.720806 0.251159
vt 0.693981 0.268226
vt 0.758736 0.168010
vt 0.408067 0.318081
vt 0.348488 0.225548
vt 0.431026 0.176751
vt 0.834672 0.401576
vt 0.821728 0.494375
vt 0.758928 0.488146
vt 0.844101 0.700647
vt 0.766741 0.707183
vt 0.766456 0.640000
vt 0.491069 0.166304
vt 0.642437 0.169965
vt 0.565426 0.199969
vt 0.608937 0.072162
vt 0.619708 0.321108
vt 0.560004 0.310321
vt 0.556413 0.271543
vt 0.152906 0.498683
vt 0.099783 0.387655
vt 0.934356 0.187628
vt 0.870663 0.174892
vt 0.622627 0.581780
vt 0.617335 0.678426
vt 0.662917 0.562066
vt 0.672331 0.661064
vt 0.949240 0.587705
vt 0.869574 0.490922
vt 0.744126 0.821215
vt 0.752056 0.707183
vt 0.791426 0.711743
vt 1.000000 0.606532
vt 0.999879 0.706758
vt 0.336809 0.082005
vt 0.672331 0.596657
vt 0.677773 0.459778
vt 0.674914 0.687648
vt 0.447322 0.276247
vt 0.387737 0.801509
vt 0.336809 0.833560
vt 0.336920 0.785916
vt 0.506205 0.350977
vt 0.448079 0.354288
vt 0.559475 0.342029
vt 0.276846 0.583529
vt 0.609960 0.361119
vt 0.324683 0.722893
vt 0.278588 0.749240
vt 0.288525 0.695621
vt 0.218381 0.752553
vt 0.149628 0.688747
vt 0.143231 0.752483
vt 0.069266 0.722735
vt 0.808347 0.361119
vt 0.000000 0.241327
vt 0.085645 0.065345
vt 0.133867 0.094672
vt 0.116277 0.014773
vt 0.187902 0.035191
vt 0.273048 0.064123
vt 0.273683 0.187557
vt 0.316518 0.068429
vt 0.336809 0.140426
vt 0.404599 0.713241
vt 0.336809 0.674909
vt 0.340137 0.610197
vt 0.336833 0.476818
vt 0.422729 0.459207
vt 0.429528 0.400325
vt 0.517650 0.412671
vt 0.604166 0.482239
vt 0.586459 0.423461
vt 0.646477 0.441109
vt 0.670954 0.491413
vt 0.016271 0.536299
vt 0.000000 0.608449
vt 0.694133 0.143704
vt 0.736508 0.092307
vt 0.012308 0.682984
vt 0.019832 0.742597
vt 0.913859 0.076969
vt 0.907061 0.133559
vt 0.829103 0.182611
vt 0.232244 0.440506
vt 0.291247 0.454530
vt 0.747834 0.361119
vt 0.130148 0.436240
vt 0.853441 0.628842
vt 0.554998 0.057463
vt 0.582099 0.007382
vt 0.207942 0.000000
vt 0.293309 0.025246
vt 0.579472 0.365264
vt 0.477201 0.361119
vt 0.628288 0.255903
vt 0.693822 0.237100
vt 0.668575 0.311882
vt 0.011393 0.383384
vt 0.731678 0.707183
vt 0.786060 0.070157
vt 0.661203 0.071636
vt 0.939564 0.506329
vt 0.791582 0.866218
vt 0.384519 0.726331
vt 0.320949 0.673747
vt 0.056221 0.145884
vt 0.339988 0.536299
vt 0.353162 0.419686
vt 0.685316 0.388716
vt 0.867108 0.417288
vt 0.563922 0.000091
vt 0.639569 0.392860
vt 0.693981 0.150197
vn 0.191800 0.978900 -0.069700
vn 0.443500 0.878500 -0.177500
vn 0.488500 0.860200 -0.145900
vn -0.003500 -0.970100 -0.242500
vn -0.001600 -0.830600 -0.556800
vn 0.089400 -0.950800 -0.296700
vn 0.188600 -0.280600 0.941100
vn 0.413900 -0.827200 0.380000
vn 0.719500 -0.600500 0.348700
vn 0.685800 -0.700100 -0.198700
vn 0.803400 -0.338600 -0.489700
vn -0.264400 -0.778200 -0.569700
vn -0.792700 -0.494200 -0.356800
vn -0.707600 0.250300 -0.660800
vn -0.749100 0.394800 -0.532000
vn -0.301100 0.941300 0.152700
vn -0.536000 0.728100 -0.427200
vn 0.005600 0.986200 -0.165400
vn 0.009800 0.989900 -0.141600
vn -0.139500 0.988900 -0.051800
vn -0.230800 0.962500 -0.142200
vn -0.146700 0.950300 -0.274700
vn -0.268000 0.867200 -0.419700
vn 0.602600 0.795600 0.061500
vn 0.421900 0.903000 -0.081000
vn 0.331100 0.915300 -0.229100
vn 0.253000 -0.965800 0.056800
vn 0.083300 -0.994100 -0.069100
vn 0.687400 -0.416400 -0.595000
vn -0.366300 -0.925900 0.091800
vn -0.205700 -0.977800 0.039600
vn -0.119400 -0.985200 0.122600
vn -0.045400 -0.966200 -0.253700
vn -0.069100 -0.986800 -0.146500
vn 0.068200 0.226000 0.971700
vn 0.148900 -0.204900 0.967400
vn 0.502200 -0.327900 0.800100
vn 0.029700 0.350700 0.936000
vn 0.237600 -0.405500 0.882700
vn 0.266900 -0.042500 0.962800
vn 0.008000 -0.015000 0.999800
vn -0.096000 -0.749100 0.655400
vn 0.116500 -0.634000 0.764500
vn 0.884000 -0.247500 -0.396500
vn 0.428100 0.049400 -0.902400
vn 0.570400 0.518400 -0.637000
vn 0.876100 0.448500 0.176800
vn 0.981100 -0.191800 0.023100
vn 0.999300 -0.009100 -0.035500
vn 0.960500 -0.277900 -0.010500
vn 0.978900 0.054800 -0.196500
vn -0.617100 0.712000 -0.335000
vn -0.392200 0.136500 -0.909700
vn -0.516600 0.443900 -0.732100
vn -0.108600 0.398000 -0.910900
vn -0.091100 0.178600 -0.979700
vn -0.143600 0.102300 -0.984300
vn -0.025000 -0.550500 -0.834500
vn -0.643200 0.369100 -0.670800
vn -0.846700 0.454300 0.277100
vn -0.813600 0.565900 -0.133200
vn -0.987500 -0.058000 0.146400
vn -0.490500 0.866500 -0.092600
vn -0.122100 0.989600 0.076100
vn -0.486500 0.872500 -0.045600
vn 0.240300 0.837900 -0.489900
vn 0.712700 -0.542700 0.444300
vn -0.013300 -0.034200 0.999300
vn 0.890800 -0.321700 -0.320900
vn -0.521400 -0.326800 -0.788200
vn -0.645600 0.647800 -0.404200
vn -0.162500 0.971900 0.170100
vn -0.156900 0.974700 -0.159000
vn -0.668700 0.646800 0.366600
vn -0.225400 0.843100 0.488100
vn 0.114000 0.822700 0.556800
vn 0.370200 0.926700 -0.064100
vn 0.183000 0.790600 0.584300
vn 0.447200 0.696800 0.560700
vn -0.150400 -0.964800 0.215900
vn -0.473300 -0.692200 0.544800
vn -0.732200 -0.672700 0.106200
vn -0.535400 -0.819700 0.203700
vn -0.305700 -0.950100 0.062100
vn -0.958500 -0.263700 -0.108300
vn 0.733200 0.141800 0.665000
vn -0.147700 0.419300 0.895700
vn -0.739100 0.513100 0.436300
vn -0.180100 0.254400 0.950200
vn -0.603200 -0.148200 0.783700
vn 0.873200 0.429400 -0.230500
vn 0.985900 0.160900 0.045700
vn 0.982700 0.168200 0.077900
vn 0.175700 0.667000 -0.724100
vn 0.223900 -0.676500 -0.701500
vn -0.997200 0.073400 0.010200
vn -0.896500 -0.024300 0.442200
vn -0.740300 0.619200 0.261600
s 1
f 75/1/1 30/2/2 3/3/3
f 76/4/4 50/5/5 7/6/6
f 77/7/7 35/8/8 6/9/9
f 37/10/10 7/11/6 33/12/11
f 38/13/12 8/14/13 34/15/14
f 80/16/15 28/17/16 4/18/17
f 51/19/18 14/20/19 32/21/20
f 52/22/21 21/23/22 53/24/23
f 42/25/24 12/26/25 54/27/26
f 84/28/27 55/29/28 19/30/29
f 56/31/30 22/32/31 57/33/32
f 38/34/12 20/35/33 58/36/34
f 87/37/35 59/38/36 13/39/37
f 60/40/38 23/41/39 61/42/40
f 89/43/41 47/44/42 17/45/43
f 63/46/44 15/47/45 45/48/46
f 91/49/47 64/50/48 24/51/49
f 49/52/50 19/53/29 66/54/51
f 93/55/52 67/56/53 16/57/54
f 94/58/55 68/59/56 25/60/57
f 50/61/5 20/62/33 70/63/58
f 71/64/59 16/57/54 34/15/14
f 72/65/60 26/66/61 73/67/62
f 40/68/63 10/69/64 74/70/65
f 75/1/1 44/71/66 14/20/19
f 54/27/26 75/1/1 51/19/18
f 54/27/26 12/26/25 30/2/2
f 55/29/28 76/4/4 37/72/10
f 58/36/34 76/4/4 55/29/28
f 20/35/33 50/5/5 76/4/4
f 59/73/36 77/7/7 31/74/67
f 62/75/68 77/76/7 59/38/36
f 17/77/43 35/78/8 77/76/7
f 78/79/69 33/12/11 15/80/45
f 66/81/51 78/82/69 63/83/44
f 66/84/51 19/85/29 37/10/10
f 79/86/70 34/15/14 16/57/54
f 70/63/58 79/87/70 67/88/53
f 20/62/33 38/89/12 79/87/70
f 80/16/15 46/90/71 16/57/54
f 26/66/61 74/70/65 80/16/15
f 74/91/65 10/92/64 28/93/16
f 28/17/16 81/94/72 32/95/20
f 10/69/64 53/96/23 81/94/72
f 21/23/22 51/19/18 81/97/72
f 82/98/73 53/96/23 10/69/64
f 1/99/74 39/100/75 82/101/73
f 9/102/76 52/22/21 82/101/73
f 83/103/77 54/27/26 21/23/22
f 27/104/78 83/103/77 52/22/21
f 2/105/79 42/25/24 83/103/77
f 84/106/27 49/52/50 6/9/9
f 57/33/32 84/28/27 35/107/8
f 22/32/31 55/29/28 84/28/27
f 47/108/42 85/109/80 57/33/32
f 5/110/81 48/111/82 85/109/80
f 48/111/82 18/112/83 56/31/30
f 86/113/84 58/36/34 22/32/31
f 18/112/83 36/114/85 86/113/84
f 8/115/13 38/34/12 86/113/84
f 87/37/35 43/116/86 2/117/79
f 61/42/40 87/37/35 27/118/78
f 23/41/39 59/38/36 87/37/35
f 39/119/75 88/120/87 61/42/40
f 41/121/88 88/120/87 39/119/75
f 41/121/88 11/122/89 60/40/38
f 89/123/41 62/75/68 23/41/39
f 29/124/90 89/123/41 60/40/38
f 29/124/90 5/125/81 47/126/42
f 90/127/91 45/48/46 3/3/3
f 65/128/92 90/127/91 30/2/2
f 24/51/49 63/129/44 90/130/91
f 42/25/24 91/131/47 65/128/92
f 2/105/79 43/132/86 91/131/47
f 43/133/86 13/134/37 64/50/48
f 92/135/93 66/54/51 24/51/49
f 31/74/67 92/135/93 64/50/48
f 6/9/9 49/52/50 92/135/93
f 32/95/20 93/55/52 46/90/71
f 14/20/19 69/136/94 93/137/52
f 69/138/94 25/60/57 67/88/53
f 94/139/55 69/136/94 14/20/19
f 45/48/46 94/139/55 44/71/66
f 15/80/45 68/59/56 94/58/55
f 68/59/56 95/140/95 70/63/58
f 15/80/45 33/12/11 95/140/95
f 33/12/11 7/11/6 50/61/5
f 96/141/96 34/15/14 8/14/13
f 18/142/83 73/67/62 96/141/96
f 26/66/61 71/64/59 96/141/96
f 48/111/82 97/143/97 73/144/62
f 5/125/81 29/124/90 97/145/97
f 29/124/90 11/122/89 72/146/60
f 98/147/98 74/70/65 26/66/61
f 41/148/88 98/147/98 72/65/60
f 41/148/88 1/149/74 40/68/63
f 44/71/66 75/1/1 3/3/3
f 37/72/10 76/4/4 7/6/6
f 31/74/67 77/7/7 6/9/9
f 78/79/69 37/10/10 33/12/11
f 79/86/70 38/13/12 34/15/14
f 46/90/71 80/16/15 4/18/17
f 81/97/72 51/19/18 32/21/20
f 82/101/73 52/22/21 53/24/23
f 83/103/77 42/25/24 54/27/26
f 49/150/50 84/28/27 19/30/29
f 85/109/80 56/31/30 57/33/32
f 86/113/84 38/34/12 58/36/34
f 43/116/86 87/37/35 13/39/37
f 88/120/87 60/40/38 61/42/40
f 62/151/68 89/43/41 17/45/43
f 90/127/91 63/46/44 45/48/46
f 65/152/92 91/49/47 24/51/49
f 92/135/93 49/52/50 66/54/51
f 46/90/71 93/55/52 16/57/54
f 69/138/94 94/58/55 25/60/57
f 95/140/95 50/61/5 70/63/58
f 96/141/96 71/64/59 34/15/14
f 97/153/97 72/65/60 73/67/62
f 98/147/98 40/68/63 74/70/65
f 51/19/18 75/1/1 14/20/19
f 21/23/22 54/27/26 51/19/18
f 75/1/1 54/27/26 30/2/2
f 19/30/29 55/29/28 37/72/10
f 22/32/31 58/36/34 55/29/28
f 58/36/34 20/35/33 76/4/4
f 13/134/37 59/73/36 31/74/67
f 23/41/39 62/75/68 59/38/36
f 62/75/68 17/77/43 77/76/7
f 63/154/44 78/79/69 15/80/45
f 24/155/49 66/81/51 63/83/44
f 78/79/69 66/84/51 37/10/10
f 67/56/53 79/86/70 16/57/54
f 25/60/57 70/63/58 67/88/53
f 70/63/58 20/62/33 79/87/70
f 71/64/59 80/16/15 16/57/54
f 71/64/59 26/66/61 80/16/15
f 80/156/15 74/91/65 28/93/16
f 4/18/17 28/17/16 32/95/20
f 28/17/16 10/69/64 81/94/72
f 53/24/23 21/23/22 81/97/72
f 40/68/63 82/98/73 10/69/64
f 40/157/63 1/99/74 82/101/73
f 39/100/75 9/102/76 82/101/73
f 52/22/21 83/103/77 21/23/22
f 9/102/76 27/104/78 52/22/21
f 27/104/78 2/105/79 83/103/77
f 35/8/8 84/106/27 6/9/9
f 17/158/43 57/33/32 35/107/8
f 57/33/32 22/32/31 84/28/27
f 17/158/43 47/108/42 57/33/32
f 47/108/42 5/110/81 85/109/80
f 85/109/80 48/111/82 56/31/30
f 56/31/30 86/113/84 22/32/31
f 56/31/30 18/112/83 86/113/84
f 36/114/85 8/115/13 86/113/84
f 27/118/78 87/37/35 2/117/79
f 9/159/76 61/42/40 27/118/78
f 61/42/40 23/41/39 87/37/35
f 9/159/76 39/119/75 61/42/40
f 1/160/74 41/121/88 39/119/75
f 88/120/87 41/121/88 60/40/38
f 60/40/38 89/123/41 23/41/39
f 11/122/89 29/124/90 60/40/38
f 89/123/41 29/124/90 47/126/42
f 30/2/2 90/127/91 3/3/3
f 12/26/25 65/128/92 30/2/2
f 65/152/92 24/51/49 90/130/91
f 12/26/25 42/25/24 65/128/92
f 42/25/24 2/105/79 91/131/47
f 91/49/47 43/133/86 64/50/48
f 64/50/48 92/135/93 24/51/49
f 13/134/37 31/74/67 64/50/48
f 31/74/67 6/9/9 92/135/93
f 4/18/17 32/95/20 46/90/71
f 32/21/20 14/20/19 93/137/52
f 93/161/52 69/138/94 67/88/53
f 44/71/66 94/139/55 14/20/19
f 3/3/3 45/48/46 44/71/66
f 45/162/46 15/80/45 94/58/55
f 25/60/57 68/59/56 70/63/58
f 68/59/56 15/80/45 95/140/95
f 95/140/95 33/12/11 50/61/5
f 36/163/85 96/141/96 8/14/13
f 36/163/85 18/142/83 96/141/96
f 73/67/62 26/66/61 96/141/96
f 18/112/83 48/111/82 73/144/62
f 48/164/82 5/125/81 97/145/97
f 97/145/97 29/124/90 72/146/60
f 72/65/60 98/147/98 26/66/61
f 11/165/89 41/148/88 72/65/60
f 98/147/98 41/148/88 40/68/63
